<svg width="562" height="406" viewBox="0 0 562 406" fill="none" xmlns="http://www.w3.org/2000/svg">
<path fill-rule="evenodd" clip-rule="evenodd" d="M36.8932 300.584C65.1894 276.29 62.7464 207.296 48.0862 209.998C37.6765 211.915 32.467 257.871 36.8932 300.584ZM39.006 317.315C44.6739 348.054 56.1001 372.855 75.4772 369.279C97.7205 365.173 110.671 331.979 116.988 289.246C121.496 284.492 136.138 295.011 133.525 312.603C126.362 361.365 100.366 395.503 70.1028 401.086C31.7951 408.142 8.48822 364.012 2.26362 314.301C-5.18833 257.957 7.18226 195.033 45.9602 187.893C100.842 177.778 97.6131 303.567 39.006 317.315Z" fill="url(#paint0_linear_308_212)"/>
<path fill-rule="evenodd" clip-rule="evenodd" d="M180.954 256.909C179.943 248.776 178.927 240.652 177.931 232.531C176.251 218.159 174.587 203.793 172.917 189.433C168.315 188.317 163.023 188.808 159.712 189.413C135.119 193.956 148.058 349.052 167.928 345.398C180.218 343.117 182.483 299.67 180.954 256.909ZM268.803 287.68C264.783 316.293 251.344 362.798 226.275 367.407C213.5 369.77 204.341 357.277 197.024 336.119C194.495 359.57 182.331 378.437 166.709 381.326C107.124 392.308 82.3879 181.174 156.648 167.488C161.859 166.533 166.192 166.208 170.15 166.459C164.779 116.095 160.878 68.3963 159.91 39.233C159.079 13.4583 184.875 -8.40767 190.925 3.18878C194.544 75.8837 207.176 189.48 217.021 261.518C222.542 302.066 224.279 330.115 230.434 328.976C232.806 328.544 235.798 323.585 237.855 318.813C243.033 307.091 248.884 288.412 252.261 264.311C256.304 259.651 271.423 270.086 268.803 287.68Z" fill="url(#paint1_linear_308_212)"/>
<path fill-rule="evenodd" clip-rule="evenodd" d="M283.354 255.156C311.622 230.865 309.181 161.866 294.521 164.572C284.12 166.486 278.896 212.444 283.354 255.156ZM285.447 271.895C291.123 302.634 302.53 327.42 321.923 323.857C344.168 319.753 357.116 286.562 363.425 243.828C367.931 239.073 382.58 249.593 379.967 267.174C372.798 315.947 346.814 350.085 316.55 355.668C278.228 362.72 254.938 318.594 248.711 268.87C241.251 212.541 253.618 149.616 292.405 142.454C347.274 132.338 344.058 258.149 285.447 271.895Z" fill="url(#paint2_linear_308_212)"/>
<path fill-rule="evenodd" clip-rule="evenodd" d="M432.985 122.417C449.112 117.007 466.687 127.461 471.096 167.247C476.33 219.573 480.662 282.865 488.708 281.377C491.075 280.941 494.072 275.984 496.118 271.201C501.296 259.488 507.152 240.799 510.53 216.707C514.569 212.05 529.69 222.472 527.066 240.065C523.04 268.692 509.604 315.188 484.538 319.816C447.662 326.608 442.459 232.192 438.889 175.621C438.299 164.475 436.147 163.416 433.788 163.849C427.641 164.978 424.54 238.43 420.434 298.359C418.545 322.673 413.379 334.398 404.86 335.967C391.606 338.399 377.938 319.891 370.49 287.526C361.148 250.113 356.776 202.489 355.442 166.062C354.462 136.891 385.646 115.006 386.54 130.491C388.929 167.228 392.423 228.701 401.221 276.459C402.699 191.587 410.421 130.001 432.985 122.417Z" fill="url(#paint3_linear_308_212)"/>
<path d="M315.872 395.367C315.872 400.796 311.46 405.3 305.951 405.3C300.435 405.3 296.007 400.796 296.007 395.367C296.007 389.863 300.435 385.435 305.951 385.435C311.46 385.435 315.872 389.863 315.872 395.367Z" fill="#B2D235"/>
<path d="M356.967 374.22C354.667 372.538 351.954 371.18 348.991 371.18C343.052 371.18 338.366 375.759 338.366 381.789C338.366 388.075 342.867 392.485 349.24 392.485C351.954 392.485 354.937 391.384 356.967 389.516V402.585C353.566 404.291 349.837 405.043 346.104 405.043C333.199 405.043 322.409 395.455 322.409 382.297C322.409 368.284 333.118 358.604 346.773 358.604C350.344 358.604 353.906 359.458 356.967 361.151V374.22Z" fill="#B2D235"/>
<path d="M379.629 381.874C379.629 387.39 383.282 391.633 389.556 391.633C395.842 391.633 399.499 387.39 399.499 381.874C399.499 376.52 395.842 372.021 389.556 372.021C383.282 372.021 379.629 376.52 379.629 381.874ZM415.793 381.874C415.793 396.636 403.567 405.043 389.556 405.043C375.638 405.043 363.318 396.725 363.318 381.874C363.318 367.017 375.552 358.604 389.556 358.604C403.567 358.604 415.793 367.017 415.793 381.874Z" fill="#B2D235"/>
<path d="M442.184 395.367C442.184 400.796 437.775 405.3 432.25 405.3C426.734 405.3 422.329 400.796 422.329 395.367C422.329 389.863 426.734 385.435 432.25 385.435C437.775 385.435 442.184 389.863 442.184 395.367Z" fill="#B2D235"/>
<path d="M467.054 360.044V383.319C467.054 388.835 468.416 392.731 474.791 392.731C481.154 392.731 482.507 388.835 482.507 383.319V360.044H497.955V386.273C497.955 400.633 487.856 405.043 474.791 405.043C461.7 405.043 451.61 400.633 451.61 386.273V360.044H467.054Z" fill="#B2D235"/>
<path d="M523.247 375.759L539.294 360.045H560.431L538.622 380.171L561.796 403.606H540.135L523.247 385.856V403.606H507.801V333.134H523.247V375.759Z" fill="#B2D235"/>
<defs>
<linearGradient id="paint0_linear_308_212" x1="-18.8596" y1="239.808" x2="146.821" y2="282.262" gradientUnits="userSpaceOnUse">
<stop offset="0.0110348" stop-color="#278002"/>
<stop offset="1" stop-color="#75C62A"/>
</linearGradient>
<linearGradient id="paint1_linear_308_212" x1="88.0504" y1="93.4134" x2="291.474" y2="128.146" gradientUnits="userSpaceOnUse">
<stop offset="0.0110348" stop-color="#278002"/>
<stop offset="1" stop-color="#75C62A"/>
</linearGradient>
<linearGradient id="paint2_linear_308_212" x1="227.584" y1="194.374" x2="393.265" y2="236.824" gradientUnits="userSpaceOnUse">
<stop offset="0.0110348" stop-color="#278002"/>
<stop offset="1" stop-color="#75C62A"/>
</linearGradient>
<linearGradient id="paint3_linear_308_212" x1="330.889" y1="173.726" x2="535.907" y2="241.147" gradientUnits="userSpaceOnUse">
<stop offset="0.0110348" stop-color="#278002"/>
<stop offset="1" stop-color="#75C62A"/>
</linearGradient>
</defs>
</svg>
